<?xml version="1.0" encoding="UTF-8"?>
<svg id="Layer_1" data-name="Layer 1" xmlns="http://www.w3.org/2000/svg" viewBox="0 0 1250.89 200.89">
  <path fill="#020202" stroke-width="0" d="M1250.38,108.66c-.92,8.78-5.57,14.69-13.76,17.92-2.84,1.12-5.8,1.79-8.82,2.12-7.51.81-14.99.81-22.35-1.15-10.94-2.91-16.46-10.24-17.04-21.25-.42-7.96-.1-15.96-.19-23.94-.01-1.28.53-1.39,1.57-1.39,5.84.04,11.68.05,17.52,0,1.27-.01,1.62.4,1.6,1.64-.06,5.59-.03,11.17-.02,16.76,0,1.04-.03,2.09.13,3.11.98,6.29,5.43,8.89,11.28,8.6,6.16-.3,9.51-3.62,9.9-9.81.28-4.45.23-8.93-.03-13.39-.23-3.87-2.02-6.85-5.2-8.96-1.92-1.28-3.96-2.38-5.97-3.54-5.59-3.23-11.32-6.23-16.78-9.7-3.04-1.93-5.92-4.06-8.35-6.76-3.44-3.83-5.4-8.31-5.52-13.43-.16-7.02-.25-14.05-.05-21.06.31-10.75,6.09-18.57,16.33-21.77,10.18-3.18,20.51-3.18,30.62.41,7.96,2.82,12.98,8.46,14.72,16.84.34,1.66.34,3.34.36,5,.06,6.78.03,13.57.02,20.35,0,1.71-.04,1.74-1.67,1.75-5.68.01-11.36.01-17.04,0-1.61,0-1.63-.03-1.64-1.77-.01-5.11-.03-10.22,0-15.32,0-1.37-.14-2.71-.42-4.04-.74-3.51-2.82-5.84-6.32-6.78-2.51-.68-5.08-.68-7.59-.05-3.84.97-6.31,3.72-6.64,7.84-.37,4.61-.34,9.26,0,13.87.25,3.29,2.06,5.8,4.68,7.75,1.99,1.49,4.2,2.61,6.34,3.84,6.16,3.54,12.51,6.74,18.44,10.66,2.47,1.63,4.81,3.43,6.78,5.67,2.69,3.06,4.69,6.44,4.99,10.61.05.64.63,1.11.44,1.78v25.86c.16.64-.59,1.1-.34,1.75Z"/>
  <path fill="#fcb21c" stroke-width="0" d="M74.03,200.76c.3-.9,1.21-.98,1.89-1.32,5.53-2.71,10.91-5.72,15.8-9.46,9.39-7.18,14.94-16.9,17.75-28.2,3.2-12.85,1.88-25.24-3.95-37.22-6.53-13.41-15.23-25.19-25.5-35.96-11.6-12.17-20.51-26.06-25.45-42.26-1.7-5.56-3.33-11.16-3.21-17.08.02-.94-.25-1.89-.42-3.11-1.78,2.11-2.93,4.34-4.14,6.53-5.69,10.33-9.07,21.37-10.27,33.1-1.15,11.18-.46,22.28,1.31,33.34.03.2-.01.41-.04.99-2.53-3.13-4.86-6.02-7.21-8.93-.78.78-.64,1.62-.7,2.38-.2,2.46-.35,4.93-.58,7.39-.33,3.69-1.42,7.17-2.98,10.53-3.29,7.11-7.02,13.98-11.68,20.29-5.14,6.96-8.04,14.72-8.16,23.31-.13,8.83,2.39,17,7.56,24.25,4.69,6.57,10.69,11.82,17.16,16.56,2.25,1.65,4.54,3.24,6.81,4.86h-1.44c-.24-1.02-1.21-.91-1.9-1.13-7.96-2.66-14.77-7.14-20.66-13.04-6.89-6.9-10.83-15.3-12.44-24.82-1.38-8.14-1.22-16.19,1.91-23.99,1.85-4.61,4.31-8.89,7.18-12.94,2.31-3.26,4.49-6.58,6.4-10.1,4.31-7.92,5.29-16.27,3.51-25.02-.53-2.58-1.03-5.16-1.53-7.74-.25-1.26-.3-2.53,0-3.8.52-2.17,1.79-3.23,4.04-3.38.32-.02.65-.07.96,0,1.24.25,1.72-.34,1.9-1.49.48-3.15,1.03-6.29,1.53-9.43,1.12-7,2.31-13.98,4.04-20.87,2.86-11.38,8.69-21.18,16.11-30.12,2.34-2.82,4.8-5.56,7.31-8.23,1.48-1.58,3.17-2.92,5.61-2.71,3.17.28,5.33,3.17,4.52,6.25-.26,1-.62,1.98-1.08,2.91-3.89,7.97-4.12,16.21-2.22,24.72,3.5,15.65,10.56,29.47,20.91,41.7,4.95,5.85,10.13,11.51,14.76,17.61,6.6,8.69,12.28,17.9,15.83,28.27,4.77,13.95,5.91,28.08,1.03,42.21-5.44,15.73-16,26.78-31.6,32.87-1.48.58-3.06.9-4.58,1.36-.9.27-1.89.27-2.66.92h-1.44Z"/>
  <path fill="#fcb21c" stroke-width="0" d="M1250.38,108.66c-.25-.65.5-1.12.34-1.75v2.39c-.11-.21-.23-.43-.34-.64Z"/>
  <path fill="#020202" stroke-width="0" d="M927.68,127.45c-.64.53-1.22.35-1.75.35-5.84.01-11.67.01-17.51,0-2,0-2-.02-2.61-1.93-4.92-15.39-9.85-30.78-14.76-46.18-.75-2.34-.49-2.03-2.75-2.05-2.16-.01-4.32-.02-6.48,0-1.62.01-1.62.03-1.65,1.73,0,.48,0,.96,0,1.44,0,14.68,0,29.36,0,44.04,0,.56-.04,1.12,0,1.67.07.91-.3,1.29-1.23,1.29-6.24-.02-12.47-.02-18.71,0-.82,0-1.15-.36-1.11-1.15.03-.48,0-.96,0-1.44,0-40.21,0-80.41,0-120.62,0-2.99-.43-2.61,2.7-2.61,10.55-.02,21.11-.02,31.66,0,5.39.01,10.66.81,15.67,2.9,8.08,3.37,12.56,9.49,13.86,18.06.3,1.98.42,3.96.42,5.96-.02,7.58-.01,15.16,0,22.74,0,3.29-.49,6.51-1.51,9.64-1.74,5.31-5.1,9.31-9.97,12.06q-2.12,1.19-1.32,3.56c5.45,16.14,10.9,32.28,16.34,48.42.25.73.48,1.47.7,2.13ZM880.17,39.94c0,6.06,0,12.12,0,18.18,0,.71-.14,1.43,1.01,1.42,4.07-.06,8.16.14,12.22-.13,5.36-.36,8.38-3.55,8.91-8.88.09-.87.09-1.75.09-2.63,0-3.67.01-7.34,0-11.01,0-2.47.08-4.95-.11-7.41-.41-5.23-3.16-8.13-8.35-8.87-3.97-.57-7.98-.15-11.97-.23-1.77-.04-1.79.02-1.8,1.86-.01,5.9,0,11.8,0,17.7Z"/>
  <path fill="#020202" stroke-width="0" d="M615.27,64.81c0-19.95,0-39.9,0-59.84,0-.56.05-1.12-.01-1.67-.13-1.09.37-1.33,1.38-1.32,11.75.05,23.51-.03,35.26.14,4.98.07,9.83,1.17,14.36,3.34,7.08,3.4,11.1,9.1,12.47,16.76.44,2.45.53,4.91.53,7.38,0,23.54,0,47.08,0,70.62,0,4.75-.5,9.39-2.57,13.74-3.1,6.52-8.54,10.12-15.26,12.09-4.56,1.34-9.27,1.7-13.98,1.75-9.99.09-19.99.03-29.99.03-2.31,0-2.2.19-2.2-2.2,0-20.27,0-40.53,0-60.8ZM636.23,64.76v31.09c0,3.67,0,7.33,0,11q0,2.46,2.35,2.47c2.64,0,5.27,0,7.91,0,1.52,0,3.03-.12,4.52-.47,3.5-.82,5.76-2.89,6.68-6.4.55-2.11.6-4.25.6-6.4.01-20.81.01-41.62,0-62.43,0-1.43-.08-2.87-.2-4.29-.44-5.05-3.2-8-8.24-8.72-3.89-.56-7.82-.16-11.72-.24-1.84-.04-1.85.02-1.89,1.82-.01.48,0,.96,0,1.44v41.14Z"/>
  <path fill="#020202" stroke-width="0" d="M841.94,65.07c0,12.12,0,24.25,0,36.37,0,3.52-.2,7.01-1.21,10.41-2.54,8.51-8.51,13.4-16.86,15.68-6.47,1.76-13.06,1.92-19.71,1.48-4.42-.29-8.7-1.07-12.8-2.76-7.9-3.26-12.4-9.19-13.84-17.54-.34-1.98-.45-3.95-.44-5.95.01-25.52,0-51.04,0-76.56,0-3.95.65-7.77,2.24-11.4,2.78-6.35,7.8-10.14,14.25-12.22,3.66-1.18,7.44-1.85,11.29-1.95,6.31-.16,12.63-.29,18.8,1.44,4.61,1.29,8.8,3.31,12.11,6.87,4.12,4.43,5.74,9.83,6.09,15.7.11,1.91.09,3.83.09,5.74,0,11.56,0,23.13,0,34.69ZM798.11,64.53c0,11.56,0,23.12,0,34.68,0,.96,0,1.92.1,2.87.51,4.62,3.03,7.35,7.59,8.31,2.71.57,5.4.5,8.08-.14,3.3-.79,5.46-2.81,6.42-6.09.64-2.17.67-4.4.67-6.63.02-21.77.02-43.53,0-65.3,0-1.59-.08-3.19-.25-4.77-.52-4.69-3.26-7.49-7.91-8.26-2.39-.4-4.76-.38-7.14.07-3.63.69-6,2.74-7.06,6.32-.44,1.48-.5,2.98-.5,4.49,0,11.48,0,22.96,0,34.45Z"/>
  <path fill="#020202" stroke-width="0" d="M760.68,64.9c0,12.05.02,24.1-.01,36.15,0,3.43-.22,6.85-1.12,10.19-2.37,8.79-8.36,13.89-16.9,16.25-7.58,2.09-15.31,2.08-23.06,1.21-3.26-.36-6.43-1.17-9.48-2.42-8.41-3.45-12.9-9.84-14.09-18.68-.22-1.65-.27-3.34-.27-5.01-.02-25.38,0-50.76-.01-76.14,0-4.03.6-7.96,2.22-11.66,2.78-6.34,7.8-10.15,14.26-12.23,3.67-1.18,7.44-1.84,11.3-1.94,6.32-.16,12.64-.29,18.81,1.44,6.47,1.81,11.87,5.06,15.18,11.16,1.54,2.84,2.43,5.88,2.78,9.08.29,2.62.42,5.24.41,7.88-.02,11.57,0,23.14,0,34.72ZM716.69,64.76c0,9.81,0,19.61,0,29.42,0,2.07-.04,4.15,0,6.22.16,6.16,3.24,9.61,9.15,10.24,2.15.23,4.3.15,6.43-.34,3.84-.87,6.09-3.24,6.91-7.05.36-1.65.45-3.31.45-4.99,0-22.33,0-44.65,0-66.98,0-1.76-.11-3.51-.52-5.22-.86-3.6-3.1-5.87-6.7-6.7-1.31-.3-2.67-.46-4.04-.47-8.13-.03-11.69,3.49-11.69,11.64,0,11.4,0,22.8,0,34.21Z"/>
  <path fill="#020202" stroke-width="0" d="M450.83,64.76c0,12.84,0,25.68,0,38.52,0,4.28-.72,8.4-2.59,12.28-3.05,6.34-8.36,9.91-14.9,11.81-5.72,1.66-11.6,2-17.54,1.76-4.16-.17-8.29-.55-12.29-1.74-5.93-1.77-10.92-4.88-14.12-10.35-2.44-4.17-3.4-8.76-3.41-13.52-.04-25.84-.07-51.68.02-77.52.02-6.36,1.63-12.3,6.14-17.14,3.68-3.95,8.37-6.14,13.52-7.16,8.94-1.77,17.95-1.88,26.84.37,8.36,2.12,14.46,6.93,17.07,15.44.92,2.99,1.26,6.07,1.26,9.2-.02,12.68,0,25.36,0,38.04ZM406.99,64.79c0,11.24,0,22.48,0,33.73,0,1.11,0,2.24.11,3.34.46,4.42,2.82,7.39,6.7,8.36,3.07.76,6.18.78,9.25-.01,2.99-.78,5.05-2.63,6.05-5.58.6-1.76.75-3.58.75-5.42,0-22.96,0-45.93,0-68.89,0-1.11-.07-2.24-.26-3.33-.64-3.64-2.46-6.37-6.22-7.41-3.3-.91-6.61-.92-9.92.02-3.12.89-5,2.96-5.9,6.02-.5,1.71-.56,3.45-.56,5.21,0,11.32,0,22.64,0,33.97Z"/>
  <path fill="#020202" stroke-width="0" d="M269.43,64.77c0,20.03,0,40.06,0,60.08,0,.48-.04.96,0,1.44.11,1.08-.23,1.56-1.45,1.55-6-.06-11.99-.05-17.99,0-1.12,0-1.66-.3-1.54-1.48.06-.55,0-1.12,0-1.67,0-16.28,0-32.56,0-48.83,0-2.88.32-2.61-2.5-2.61-6.4-.01-12.79,0-19.19,0-2.35,0-2.05.05-2.05,2.1,0,16.6,0,33.19,0,49.79,0,2.98.4,2.7-2.66,2.7-5.44.01-10.88.01-16.31,0-2.04,0-2.05-.02-2.06-2.12,0-11.17,0-22.34,0-33.51,0-29.2,0-58.41,0-87.61,0-2.82-.41-2.57,2.53-2.58,5.44,0,10.88,0,16.31,0,2.45,0,2.19-.14,2.19,2.18,0,15.56,0,31.12,0,46.68,0,.48,0,.96,0,1.44,0,2.09-.27,2.07,2.07,2.07,6.56,0,13.11,0,19.67,0,1.99,0,2.01-.02,2.01-2.13,0-15.88,0-31.76,0-47.64,0-2.95-.25-2.59,2.51-2.6,5.44-.01,10.88,0,16.31,0,2.37,0,2.13-.25,2.13,2.22,0,20.19,0,40.37,0,60.56Z"/>
  <path fill="#020202" stroke-width="0" d="M531.13,53.99c0,16.2,0,32.4,0,48.6,0,3.03-.31,6.03-1.08,8.99-1.82,6.98-6.07,11.78-12.67,14.61-3.03,1.3-6.2,2.1-9.46,2.47-8.15.91-16.27.94-24.2-1.58-9.15-2.91-14.24-9.28-15.63-18.67-.34-2.28-.48-4.59-.48-6.91.02-32,.01-64,.01-96,0-.48,0-.96,0-1.44,0-2.06-.24-2.08,2.08-2.08,5.68,0,11.36,0,17.03,0,1.9,0,1.92.02,1.92,1.97,0,11.49,0,22.98,0,34.47,0,20.11,0,40.22,0,60.33,0,2.16.18,4.29.87,6.36.91,2.74,2.79,4.4,5.54,5.11,3,.78,6.04.74,9.01-.07,2.55-.7,4.32-2.36,5.19-4.88.7-2.06.92-4.19.92-6.36,0-31.36,0-62.72,0-94.09q0-2.85,2.94-2.85c5.28,0,10.56,0,15.83,0,2.27,0,2.19-.24,2.19,2.21,0,16.6,0,33.2,0,49.8Z"/>
  <path fill="#020202" stroke-width="0" d="M1173.23,55.34c0,15.48,0,30.96,0,46.45,0,4.17-.36,8.28-1.84,12.23-2.48,6.59-7.32,10.67-13.85,12.94-2.5.87-5.07,1.43-7.7,1.72-7.59.85-15.15.86-22.59-1.17-10.42-2.85-16.13-9.7-17.24-20.44-.21-2.07-.31-4.13-.31-6.2,0-32.08,0-64.16.01-96.24,0-2.98-.42-2.63,2.7-2.64,5.28-.02,10.56-.02,15.84,0,2.9,0,2.49-.31,2.49,2.6,0,31.36,0,62.73,0,94.09,0,1.76.07,3.51.48,5.23.83,3.52,2.89,5.76,6.53,6.47,2.47.48,4.91.54,7.37,0,3.86-.83,6-2.98,6.71-6.85.3-1.65.45-3.31.44-5-.02-31.28-.01-62.57-.01-93.85q0-2.7,2.61-2.7c5.36,0,10.72,0,16.08,0,2.42,0,2.28-.25,2.28,2.36,0,17,0,34,0,51Z"/>
  <path fill="#020202" stroke-width="0" d="M969.03,64.67c0-20.02,0-40.05,0-60.07,0-2.98-.43-2.61,2.72-2.6,11.43,0,22.87-.04,34.3.11,4.4.06,8.71,1.01,12.82,2.68,7.73,3.14,12.3,8.83,13.93,16.95.52,2.59.61,5.22.61,7.85,0,8.3.01,16.59-.1,24.89-.06,4.44-1.09,8.69-3.38,12.56-3.47,5.87-8.91,8.96-15.31,10.61-3.88,1-7.85,1.44-11.86,1.45-3.6.01-7.2,0-10.79,0-2.09,0-1.9-.08-1.9,1.97,0,13.48,0,26.97,0,40.45,0,1.68-.03,3.35.01,5.03.03.91-.3,1.29-1.24,1.29-6.24-.02-12.47-.02-18.71,0-.82,0-1.15-.36-1.11-1.16.03-.56,0-1.12,0-1.68,0-20.1,0-40.21,0-60.31ZM1012.3,40.62c.13-3.74.27-7.48-.05-11.22-.43-5.06-3.17-8.04-8.17-8.78-3.97-.58-7.97-.17-11.95-.25-2.04-.05-2.06,0-2.06,2.07,0,12.03,0,24.05,0,36.08,0,.32.03.64,0,.96-.08.82.26,1.12,1.09,1.11,3.91-.05,7.83.09,11.73-.1,5.91-.28,9.17-3.64,9.39-9.6.13-3.42.02-6.84.02-10.26Z"/>
  <path fill="#020202" stroke-width="0" d="M287.34,64.82c0-19.87,0-39.74,0-59.61,0-.56.06-1.12-.01-1.67-.17-1.33.45-1.58,1.66-1.57,17.35.03,34.71.02,52.06.03,1.68,0,1.71.03,1.72,1.69.02,4.95.01,9.89,0,14.84,0,1.81-.02,1.83-1.81,1.84-10,0-19.99,0-29.99,0-3.04,0-2.66-.25-2.66,2.71-.01,9.81,0,19.63,0,29.44,0,2.27-.36,2.22,2.14,2.22,8.24,0,16.47,0,24.71,0,2.06,0,1.94-.15,1.94,1.93,0,4.95.01,9.89,0,14.84,0,1.67-.04,1.7-1.72,1.71-8.08.01-16.15,0-24.23,0-.56,0-1.12.02-1.68,0-.77-.03-1.22.25-1.16,1.1.03.4,0,.8,0,1.2,0,10.53,0,21.07,0,31.6,0,2.28-.34,2.21,2.16,2.21,10,0,19.99,0,29.99,0,.56,0,1.12.03,1.68,0,.8-.05,1.14.25,1.13,1.09-.03,5.43-.02,10.85,0,16.28,0,.82-.34,1.16-1.14,1.12-.48-.02-.96,0-1.44,0-16.95,0-33.91,0-50.86,0-.4,0-.8-.03-1.2,0-.92.08-1.34-.31-1.28-1.24.03-.56,0-1.12,0-1.68,0-20.03,0-40.06,0-60.08Z"/>
  <path fill="#020202" stroke-width="0" d="M171.93,74.2c0,16.99,0,33.98,0,50.97,0,2.91.37,2.63-2.73,2.63-5.52.01-11.03.01-16.55,0-1.71,0-1.71-.04-1.75-1.7-.01-.48,0-.96,0-1.44,0-33.82,0-67.64,0-101.47,0-3.29.34-2.82-2.75-2.84-5.44-.02-10.87,0-16.31-.01-1.86,0-1.89-.03-1.9-1.78-.02-5.03.02-10.05-.03-15.08-.01-1.11.27-1.59,1.47-1.53,1.67.09,3.36.02,5.04.02,17.83,0,35.65,0,53.48,0,.56,0,1.13.05,1.68-.01,1.16-.13,1.51.33,1.49,1.48-.07,3.43-.02,6.86-.02,10.29,0,1.68-.08,3.36.03,5.02.08,1.28-.38,1.63-1.62,1.61-4.88-.06-9.75-.02-14.63-.02-1.2,0-2.4.03-3.6,0-.88-.03-1.37.23-1.3,1.2.04.56,0,1.12,0,1.67,0,16.99,0,33.98,0,50.97Z"/>
  <path fill="#020202" stroke-width="0" d="M583.6,74.18c0,16.99,0,33.98,0,50.97,0,2.85.42,2.66-2.71,2.66-5.52,0-11.03.01-16.55,0-1.72,0-1.73-.04-1.77-1.67-.01-.48,0-.96,0-1.44,0-33.82,0-67.64,0-101.47,0-3.3.41-2.85-2.97-2.86-5.44-.02-10.87,0-16.31-.01-1.8,0-1.82-.03-1.83-1.82-.01-4.79,0-9.57,0-14.36,0-2.31-.26-2.19,2.18-2.19,18.95,0,37.89,0,56.84,0,1.27,0,2.9-.54,3.72.23.94.88.33,2.57.35,3.9.05,3.91.02,7.82.01,11.73,0,2.83.26,2.49-2.62,2.5-5.28.01-10.55,0-15.83,0-2.74,0-2.51-.37-2.51,2.6,0,17.07,0,34.14,0,51.21Z"/>
  <path fill="#020202" stroke-width="0" d="M1046.69,64.85V5.24c0-.4,0-.8,0-1.2.01-2.27-.2-2.06,2.05-2.06,5.76,0,11.52.03,17.27-.03,1.23-.01,1.82.28,1.65,1.59-.07.55-.01,1.12-.01,1.67,0,33.67,0,67.34,0,101.02,0,3.1-.39,2.69,2.63,2.7,9.04.02,18.07,0,27.11.01,2.38,0,2.42-.45,2.41,2.49,0,4.63,0,9.26,0,13.88,0,2.77.09,2.49-2.42,2.49-15.03,0-30.07,0-45.1,0-1.44,0-2.88-.04-4.32.01-.92.04-1.34-.28-1.28-1.22.04-.56,0-1.12,0-1.68,0-20.03,0-40.06,0-60.08Z"/>
  <path fill="#020202" stroke-width="0" d="M865.05,166.95c-2.33,7.03-4.6,13.91-6.9,20.79-.19.56-.16,1.43-.94,1.5-1.18.1-2.4.24-3.56-.11-.19-.06-.29-.52-.38-.8-2.94-9.34-5.87-18.67-8.77-27.93.37-.67.9-.5,1.35-.5,3.91,0,3.42-.24,4.42,3.17,1.69,5.73,3.37,11.46,5.06,17.19.16.53.35,1.05.64,1.91.63-1.8,1.16-3.3,1.68-4.81,1.76-5.21,3.5-10.42,5.28-15.62.59-1.72.89-1.83,2.57-1.86,1.4-.03,1.93.71,2.33,1.91,1.71,5.22,3.47,10.42,5.25,15.62.48,1.41.83,2.89,1.73,4.46,1.39-4.66,2.7-9.06,4.01-13.47.61-2.06,1.22-4.12,1.84-6.18.7-2.32.71-2.32,3.16-2.33.64,0,1.27,0,1.86,0,.47.77-.04,1.35-.21,1.89-2.65,8.6-5.36,17.18-8.06,25.76-.2.65-.16,1.61-1.02,1.7-1.18.12-2.43.32-3.55-.15-.36-.15-.49-.94-.66-1.46-2-6.13-3.98-12.27-6.01-18.4-.24-.73-.29-1.59-1.1-2.28Z"/>
  <path fill="#020202" stroke-width="0" d="M275.32,167.71c-.85.42-1,1.17-1.32,1.76-2.5,4.53-4.98,9.07-7.47,13.61-.27.49-.48,1.02-.83,1.45-.93,1.16-2.58,1.18-3.51.02-.4-.49-.66-1.09-.97-1.65-2.51-4.53-5.03-9.05-7.54-13.58-.29-.53-.59-1.05-1.28-1.45v21.09c-.3.29-.57.3-.79.31q-3.3.15-3.3-3.2c0-8.05,0-16.11,0-24.16,0-1.9-.43-1.96,2.11-2.06,1.61-.06,2.62.38,3.44,1.88,3.25,6.03,6.64,11.98,9.98,17.97.7-.2.74-.94,1.03-1.46,3.08-5.58,6.13-11.17,9.2-16.75.33-.61.53-1.46,1.37-1.52,1.19-.09,2.39-.04,3.58.02.35.02.41.43.41.75,0,.4,0,.8,0,1.2,0,8.45,0,16.9,0,25.35,0,2,.28,2.02-1.87,2-2.3-.02-2.05.25-2.05-2.03,0-5.74,0-11.48-.01-17.22,0-.75.16-1.54-.17-2.33Z"/>
  <path fill="#020202" stroke-width="0" d="M339.64,180.98v-6.39c0-4.22,0-8.45,0-12.67,0-2.14-.13-2.02,2.13-2.03.32,0,.64,0,.96,0,.72,0,.95.38.93,1.06-.03.96,0,1.91,0,2.87,0,7.81.01,15.62-.02,23.44,0,.65.43,1.67-.41,1.9-1.02.28-2.24.49-3.19-.33-.54-.46-.94-1.08-1.38-1.64-4.54-5.86-9.07-11.73-13.61-17.59-.38-.49-.78-.96-1.24-1.51-.68.56-.45,1.23-.45,1.8-.02,5.82,0,11.64-.02,17.46,0,1.95-.02,1.95-1.93,1.95-2.33,0-2.07.08-2.07-2.05,0-8.45,0-16.9.02-25.35,0-.64-.4-1.48.45-1.92.74-.38,2.84-.05,3.37.56.73.84,1.39,1.74,2.08,2.63,4.35,5.61,8.69,11.22,13.04,16.83.28.37.58.72.88,1.08.16-.03.32-.06.48-.08Z"/>
  <path fill="#020202" stroke-width="0" d="M636.45,159.53c8.76.02,15.05,6.35,14.6,16.07-.07,1.5-.27,3.01-.77,4.45-2.52,7.25-8.95,10.24-15.58,9.55-9.06-.94-13.41-8.19-12.96-15.99.3-5.2,2.4-9.53,7.15-12.22,2.34-1.33,4.89-1.87,7.57-1.86ZM626.32,175.09c.02.3,0,1.03.12,1.73.65,4.07,2.54,7.29,6.71,8.48,5.63,1.6,11.8-.67,13.08-7.9.52-2.92.35-5.75-.88-8.42-1.79-3.9-5.02-5.65-9.25-5.54-4.14.11-7.15,2.01-8.82,5.85-.74,1.71-1,3.52-.97,5.79Z"/>
  <path fill="#020202" stroke-width="0" d="M1080.21,159.53c8.81-.06,15.29,6.28,14.76,16.15-.36,6.7-3.92,11.45-9.82,13.27-9.71,2.99-20.47-2.98-19.41-15.88.5-6.04,3.4-10.5,9.3-12.68,1.66-.62,3.39-.84,5.16-.86ZM1070.18,174.65s.1,0,.15,0c0,.64-.05,1.28,0,1.91.5,5.13,3.92,8.66,8.84,9.17,5.02.52,9.17-2.06,10.6-6.69.99-3.22.95-6.46-.3-9.62-1.09-2.75-3.02-4.65-5.9-5.52-6.2-1.88-11.68,1.32-13.05,7.66-.22,1.01-.24,2.05-.36,3.08Z"/>
  <path fill="#020202" stroke-width="0" d="M1103.07,159.87c4.62.12,9.34-.36,14.01.28,6.29.86,10.64,5.76,11.38,12.39.85,7.61-2.54,13.62-8.98,15.91-1.36.48-2.75.84-4.2.85-3.68,0-7.35-.01-11.03.02-.91,0-1.45-.08-1.44-1.25.05-9.17.03-18.34.04-27.51,0-.15.09-.3.22-.68ZM1107.32,174.37c0,3.26.05,6.53-.03,9.79-.03,1.29.45,1.66,1.66,1.61,1.67-.07,3.35.03,5.02-.03,5.41-.18,8.7-2.99,9.8-8.32.34-1.66.37-3.33.13-4.99-.84-5.63-4.29-8.72-10.01-8.97-1.75-.08-3.51.03-5.26-.04-1.09-.05-1.34.41-1.33,1.4.05,3.18.02,6.37.02,9.55Z"/>
  <path fill="#020202" stroke-width="0" d="M595.43,176.55c3,4.15,5.98,8.26,8.95,12.36-.22.18-.32.34-.43.34-5.4-.02-3.86.74-6.93-3.48-1.64-2.25-3.24-4.54-4.88-6.8-1.12-1.54-2.75-2.09-4.58-1.64-.84.2-.59.83-.59,1.33-.02,2.55-.01,5.1-.01,7.65,0,.48-.06.97.01,1.43.21,1.33-.43,1.67-1.63,1.57-.87-.07-1.74-.01-2.49-.01-.41-.46-.37-.87-.37-1.26,0-8.77,0-17.53,0-26.3,0-1.81.03-1.85,1.82-1.84,3.03.01,6.07.07,9.1.12.88.01,1.73.21,2.58.46,3.63,1.1,5.6,3.21,5.91,6.4.39,4.05-1.09,6.97-4.48,8.74-.62.33-1.28.6-1.99.93ZM586.96,168.67h0c0,.56-.04,1.12,0,1.67.1,1.16-.55,2.65.31,3.4.82.71,2.28.17,3.46.24,1.38.08,2.7-.12,3.94-.75,2.02-1.02,3.1-3.03,2.89-5.3-.21-2.23-1.44-3.54-3.91-4.2-1.96-.53-3.96-.19-5.94-.27-.65-.03-.77.4-.77.93,0,1.43,0,2.86,0,4.29Z"/>
  <path fill="#020202" stroke-width="0" d="M984.08,176.51c2.99,4.13,5.97,8.24,9.15,12.64-1.64.26-3.03.17-4.4.1-.9-.04-1.28-.87-1.74-1.51-2.09-2.92-4.16-5.85-6.26-8.76-.6-.84-1.17-1.63-2.42-1.69-2.75-.13-2.75-.2-2.75,2.57,0,2.63-.04,5.26.02,7.9.02,1.07-.18,1.55-1.42,1.56-3.24.05-3.24.12-3.24-3.07,0-8.14,0-16.27,0-24.41,0-1.93.02-1.96,1.94-1.95,2.96.01,5.91.06,8.87.11.8.01,1.58.15,2.36.35,3.98,1.06,6.14,3.3,6.42,6.76.34,4.14-1.4,7.1-5.17,8.8-.44.2-.88.38-1.36.59ZM979.12,163.44c-1.02,0-1.82.01-2.61,0-.61-.01-.83.3-.83.87,0,2.94,0,5.87,0,8.81,0,.42.08.84.6.83,2.29-.04,4.62.37,6.83-.59,2.14-.92,3.37-2.99,3.17-5.36-.18-2.21-1.45-3.57-3.83-4.27-1.18-.35-2.36-.25-3.32-.28Z"/>
  <path fill="#020202" stroke-width="0" d="M528.01,159.9c4.21.03,8.29-.36,12.31.28,5.69.91,8.45,5.33,6.85,10.62-.63,2.09-1.99,3.6-3.88,4.64-.7.38-1.43.7-2.27,1.1,2.99,4.15,5.98,8.28,9.21,12.75-1.62,0-2.86-.02-4.1,0-1.06.03-1.53-.71-2.04-1.43-2.08-2.92-4.16-5.84-6.25-8.75-1.22-1.7-2.8-2.25-4.74-1.79-.81.19-.65.78-.66,1.3-.01,2.55,0,5.1,0,7.65,0,3.29-.15,3.41-3.46,3.03-.71-.08-.95-.34-.95-1.03.01-9.39,0-18.78,0-28.38ZM532.41,168.76c0,1.43,0,2.86,0,4.28,0,.56.19.94.8.92,2.21-.08,4.46.35,6.6-.53,2.32-.96,3.5-2.89,3.3-5.48-.17-2.27-1.33-3.52-3.83-4.24-.86-.25-1.72-.3-2.59-.26-1.34.06-3.01-.56-3.92.26-.94.84-.24,2.54-.35,3.86-.03.39,0,.79,0,1.19Z"/>
  <path fill="#020202" stroke-width="0" d="M807.54,172.78c-.9-1.37-1.63-2.69-1.96-4.19-.82-3.78,1.09-7.29,4.77-8.53,2.7-.92,5.33-.74,7.8.84,1.05.67,1.82,1.56,2.33,2.66.33.7.89,1.59.45,2.22-.58.81-1.75.59-2.68.69-.65.07-.8-.64-1.07-1.13-1.38-2.46-3.56-3.23-5.74-2.06-2.13,1.14-2.76,3.57-1.53,6.01.25.49.54.99.92,1.39,3.07,3.22,6.16,6.42,9.34,9.73,1.33-1.64,1.48-3.48,1.91-5.21.27-1.09,2.28-1.84,3.18-1.17.46.34.3.87.25,1.32-.24,2.32-.87,4.55-2.09,6.54-.53.86-.45,1.4.27,2.04,1.72,1.53,3.41,3.11,4.95,4.91-2.63.53-5.03,1-6.94-1.45-1.15-1.48-1.3-1.33-3-.23-3.35,2.15-6.94,3.21-10.92,2.14-3.19-.85-5.38-2.87-6.1-6.1-.73-3.31.39-6.13,2.99-8.32.85-.71,1.79-1.31,2.88-2.1ZM818,183.45c-2.43-2.4-4.74-4.69-7.05-6.97-1.48-1.46-1.61-1.46-3.06-.11-.35.32-.69.67-.96,1.06-1.4,1.99-1.71,4.12-.51,6.28,1.18,2.12,3.22,2.78,5.51,2.59,2.2-.18,4.17-1.01,6.08-2.85Z"/>
  <path fill="#020202" stroke-width="0" d="M1039.73,159.87c3.91.1,7.89-.2,11.87.25.47.05.93.22,1.39.35,3.19.88,5.39,2.71,5.89,6.14.53,3.65-.57,6.62-3.77,8.64-.8.51-1.71.85-2.62,1.29,2.98,4.12,5.96,8.24,9.22,12.74-1.68,0-2.99,0-4.29,0-.95,0-1.36-.72-1.82-1.37-2.04-2.86-4.17-5.65-6.09-8.59-1.06-1.62-2.33-2.19-4.19-2.05-1.03.08-1.39.36-1.36,1.39.06,2.07.02,4.15.02,6.22,0,1.04-.07,2.08.02,3.11.09,1.11-.41,1.29-1.39,1.31-3.11.06-3.11.1-3.11-2.92,0-7.98,0-15.96,0-23.94,0-.79-.14-1.6.23-2.58ZM1043.98,168.67h0v2.15c0,3.15,0,3.14,3.11,3.16,1.6.01,3.19-.01,4.66-.76,2.05-1.03,3.06-2.93,2.83-5.31-.21-2.25-1.27-3.42-3.63-4.14-2.04-.62-4.12-.23-6.17-.32-.61-.03-.8.38-.8.93,0,1.43,0,2.86,0,4.29Z"/>
  <path fill="#020202" stroke-width="0" d="M749.13,176.55c3,4.14,5.98,8.25,9.23,12.74-1.7,0-3,0-4.31,0-.97,0-1.35-.73-1.81-1.37-2.13-2.98-4.26-5.97-6.39-8.95-.51-.71-.97-1.44-1.95-1.63-2.75-.52-3.29-.09-3.29,2.73,0,2.63-.04,5.26.02,7.89.03,1.05-.32,1.48-1.36,1.34-.08-.01-.16,0-.24,0-3.46-.06-2.8.41-2.81-2.7-.04-8.05-.02-16.1,0-24.16,0-.79-.15-1.59.24-2.55,3.91.05,7.91-.28,11.86.26,4.29.59,6.77,3.02,7.26,6.75.54,4.15-1.16,7.16-5.1,9.01-.43.2-.86.41-1.33.63ZM740.6,168.61c0,1.43,0,2.87,0,4.3,0,.48-.02,1.03.66,1.02,2.53-.05,5.12.48,7.49-.92,1.93-1.14,2.8-3.05,2.45-5.52-.3-2.07-1.61-3.17-3.55-3.72-2.05-.58-4.13-.24-6.19-.33-.81-.04-.86.5-.86,1.11.01,1.35,0,2.71,0,4.06Z"/>
  <path fill="#020202" stroke-width="0" d="M494.89,160.16q4.57-.78,4.57,3.47c0,4.38-.01,8.77,0,13.15,0,.95.03,1.92.19,2.85.64,3.85,3.47,6.18,7.35,6.11,3.82-.07,6.62-2.56,7.12-6.4.13-1.02.18-2.06.19-3.09.02-4.78.01-9.56,0-14.34,0-1.97-.18-2.04,1.9-2.02,3.16.02,2.57-.12,2.58,2.51.03,4.86.01,9.72,0,14.58,0,.64.01,1.28-.05,1.91-1.12,11.17-12.15,12.63-18.17,9.3-3.58-1.98-5.4-5.24-5.56-9.2-.23-5.49-.1-10.99-.13-16.49,0-.79,0-1.58,0-2.34Z"/>
  <path fill="#020202" stroke-width="0" d="M1136.11,160.14q4.48-.74,4.48,3.51c0,4.38,0,8.77,0,13.15,0,.87.03,1.76.15,2.62.58,3.99,3.43,6.41,7.4,6.33,3.84-.07,6.57-2.55,7.12-6.41.29-2.06.18-4.13.19-6.2.02-3.9.04-7.81-.02-11.71-.01-1.09.23-1.7,1.45-1.53.16.02.32,0,.48,0,3.15.01,2.55-.11,2.57,2.52.03,4.86,0,9.72.02,14.58,0,1.61-.17,3.19-.62,4.72-1.69,5.7-7.32,8.94-13.57,7.85-5.53-.97-9.27-4.66-9.57-10.35-.33-6.35-.08-12.72-.08-19.07Z"/>
  <path fill="#020202" stroke-width="0" d="M372.12,170.06c0-2.87.04-5.74-.02-8.61-.02-1.05.15-1.56,1.4-1.6,3.26-.08,3.26-.15,3.26,3.07,0,4.46,0,8.93,0,13.39,0,1.76-.12,3.52-.59,5.21-1.6,5.82-7.39,9.18-13.69,8.03-5.71-1.05-9.43-5.11-9.59-10.87-.16-5.81-.02-11.64-.07-17.45,0-1.05.36-1.46,1.38-1.35.24.03.48,0,.72,0,2.63.02,2.32-.2,2.32,2.28,0,4.54.01,9.09,0,13.63,0,1.28.08,2.55.31,3.8.72,3.98,3.65,6.36,7.57,6.14,4-.22,6.82-3.01,6.97-7.08.11-2.87.02-5.74.02-8.61h0Z"/>
  <path fill="#020202" stroke-width="0" d="M914.92,189.14q-4.31.41-5.78-3.39c-.52-1.33-.74-3.05-1.71-3.87-1.09-.91-2.91-.27-4.41-.3-2.32-.06-4.64.04-6.95-.04-1.07-.04-1.59.37-1.91,1.34-.42,1.28-.95,2.53-1.44,3.8q-1.02,2.66-3.97,2.62c-.46,0-.95.14-1.5-.29,1.06-2.69,2.13-5.42,3.21-8.15,2.53-6.36,5.06-12.72,7.6-19.08.75-1.87.76-1.87,2.72-1.88.32,0,.64.04.96,0,1.21-.17,1.81.34,2.27,1.51,2.92,7.49,5.93,14.94,8.91,22.41.7,1.76,1.52,3.47,1.99,5.34ZM906.26,178.2c-1.71-4.49-3.37-8.85-5.13-13.47-1.75,4.62-3.41,8.98-5.11,13.47h10.24Z"/>
  <path fill="#020202" stroke-width="0" d="M313.32,189.15c-5.5.38-4.33.26-5.92-3.46-.56-1.31-.63-3.06-1.72-3.85-1.1-.8-2.78-.24-4.2-.26-2.16-.04-4.31-.02-6.47,0q-2.04,0-2.82,2.03c-.49,1.26-1.03,2.51-1.43,3.8-.44,1.44-1.26,2.12-2.8,1.93-.7-.09-1.43-.02-2.07-.02-.45-.57-.11-.98.05-1.4,3.47-8.72,6.94-17.45,10.45-26.15.27-.67.24-1.76,1.28-1.81,1.26-.07,2.57-.27,3.8.12.66.21.67,1.04.9,1.61,2.94,7.31,5.85,14.63,8.77,21.95.7,1.77,1.4,3.54,2.19,5.54ZM304.55,178.23c-1.75-4.58-3.41-8.9-5.17-13.47-1.76,4.65-3.4,8.99-5.1,13.47h10.27Z"/>
  <path fill="#020202" stroke-width="0" d="M202.87,189.3c2.09-5.23,4.03-10.1,5.97-14.97,1.71-4.29,3.47-8.56,5.11-12.87.43-1.14.95-1.75,2.22-1.58.55.08,1.12.04,1.68,0,.89-.05,1.39.2,1.77,1.15,3.61,9.2,7.29,18.36,10.95,27.54.06.14.04.31.06.46-.12.08-.23.23-.35.23-4.79.03-3.69.5-5.43-3.61-.56-1.31-.61-3.08-1.73-3.84-1.12-.76-2.79-.22-4.22-.24-2.4-.03-4.8.04-7.2-.03-.97-.03-1.45.36-1.76,1.2-.57,1.57-1.15,3.14-1.76,4.69-.73,1.85-.75,1.84-2.82,1.86-.71,0-1.43,0-2.5,0ZM211.77,178.2h10.25c-1.72-4.5-3.39-8.85-5.15-13.46-1.76,4.65-3.41,9-5.1,13.46Z"/>
  <path fill="#020202" stroke-width="0" d="M433.3,189.15c-4.21.4-4.17.38-5.68-3.38-.55-1.38-.59-3.3-1.86-3.97-1.13-.6-2.8-.22-4.23-.24-2.23-.02-4.48.1-6.7-.04-1.41-.09-2,.48-2.38,1.71-.42,1.36-.99,2.68-1.51,4.01-.8,2.03-.81,2.03-2.91,2.05-.71,0-1.43,0-2.29,0,.37-1.85,1.2-3.38,1.82-4.96,3.01-7.61,6.08-15.2,9.06-22.82.48-1.23,1.05-1.87,2.42-1.64.46.08.96.07,1.43,0,1.08-.16,1.56.37,1.92,1.32,1.34,3.49,2.74,6.95,4.13,10.43,2.18,5.47,4.36,10.94,6.53,16.4.14.36.41.7.25,1.13ZM419.58,164.74c-1.79,4.71-3.43,9.02-5.12,13.47h10.25c-1.69-4.44-3.33-8.75-5.13-13.47Z"/>
  <path fill="#020202" stroke-width="0" d="M172.97,170.15c0,2.79.05,5.58-.01,8.37-.15,6.72-5.03,11.22-12.03,11.18-6.78-.04-11.56-4.65-11.63-11.32-.06-5.58-.02-11.16,0-16.74,0-1.73.03-1.73,1.87-1.75.24,0,.48,0,.72,0,1.78.03,1.8.04,1.8,1.86.01,5.02,0,10.04,0,15.07,0,.72-.01,1.44.07,2.15.5,4.15,3.32,6.76,7.3,6.78,4.05.03,7.04-2.7,7.42-6.92.16-1.82.07-3.66.07-5.5,0-3.99.04-7.97-.02-11.96-.02-1.16.34-1.53,1.49-1.5,3.64.11,2.87-.38,2.93,2.87.05,2.47,0,4.94,0,7.41Z"/>
  <path fill="#020202" stroke-width="0" d="M963.35,189.29c-5.89,0-11.47-.03-17.05.02-1.12,0-1.29-.48-1.28-1.43.03-8.85.04-17.69,0-26.54,0-1.17.37-1.5,1.5-1.49,5.11.05,10.22.05,15.33,0,1.11-.01,1.69.25,1.51,1.45-.02.16,0,.32,0,.48,0,1.71,0,1.73-1.64,1.74-3.19.02-6.39,0-9.58,0-.48,0-.96.03-1.44,0-.91-.06-1.29.31-1.27,1.25.04,2.23.05,4.46,0,6.69-.02,1.02.5,1.17,1.33,1.17,2.72-.02,5.43-.03,8.15,0,.58,0,1.43-.34,1.63.53.21.91.31,1.91-.1,2.8-.23.52-.85.31-1.3.31-2.64.02-5.27,0-7.91.01-1.76.01-1.77.03-1.79,1.87-.01,2.07.04,4.15-.02,6.22-.03,1.06.4,1.38,1.41,1.37,3.51-.04,7.03-.02,10.54-.01,1.96,0,1.96.02,1.98,1.91,0,.47,0,.94,0,1.64Z"/>
  <path fill="#020202" stroke-width="0" d="M574.55,189.3c-1.16,0-2.27,0-3.37,0-4.47,0-8.94-.01-13.42,0-.89,0-1.47-.06-1.46-1.24.07-9.24.07-18.48.1-27.72,0-.07.05-.15.09-.28,1.23-.34,2.51-.16,3.77-.16,4.23-.03,8.47-.02,12.7,0,.57,0,1.44-.36,1.61.53.17.92.27,1.92-.08,2.81-.19.49-.85.28-1.31.28-3.27.01-6.55,0-9.82,0-.48,0-.96.03-1.44,0-.98-.07-1.22.44-1.2,1.31.03,2.15.06,4.3,0,6.45-.03,1.08.41,1.36,1.4,1.35,2.71-.04,5.43-.03,8.15,0,.57,0,1.43-.32,1.58.59.15.92.33,1.92-.16,2.79-.27.48-.87.25-1.33.26-2.72.02-5.43.05-8.15-.01-1.14-.03-1.55.32-1.51,1.49.09,2.07,0,4.14.03,6.21.02,1.71.04,1.75,1.7,1.76,3.27.03,6.55,0,9.82.01,2.63.01,2.37-.36,2.39,2.45,0,.3-.05.6-.09,1.1Z"/>
  <path fill="#020202" stroke-width="0" d="M1012.22,174.57c0-4.38.03-8.77-.02-13.15-.01-1.09.22-1.59,1.44-1.55,3.27.1,6.55.1,9.82.15.48,0,.96.06,1.43.16,4.88.99,7.55,4.22,7.5,9.05-.06,4.76-3.07,8.19-7.91,9.04-2.06.36-4.14.37-6.21.29-1.2-.04-1.72.26-1.66,1.59.1,2.63,0,5.26.04,7.89.01.85-.14,1.25-1.16,1.29-3.26.13-3.25.19-3.25-3.04v-11.72ZM1016.62,169.29c0,1.51.03,3.02-.01,4.53-.02.82.28,1.14,1.1,1.12,1.51-.03,3.03.06,4.54-.03,3.4-.21,5.69-2.62,5.67-5.87-.02-3.19-2.17-5.36-5.62-5.58-1.43-.09-2.87.02-4.3-.04-1-.04-1.44.27-1.39,1.34.07,1.51.02,3.02.02,4.53Z"/>
  <path fill="#020202" stroke-width="0" d="M764.51,174.59c0-4.31,0-8.62,0-12.93,0-1.74.03-1.77,1.61-1.77,5.04-.02,10.07-.02,15.11,0,.57,0,1.45-.31,1.54.63.08.92.36,1.93-.19,2.78-.28.42-.89.22-1.35.22-3.52.01-7.04,0-10.55.01-1.71,0-1.74.04-1.76,1.68-.02,1.99.07,3.99-.03,5.98-.06,1.25.47,1.46,1.54,1.44,2.64-.05,5.28-.03,7.92-.01,1.67.01,1.67.04,1.68,1.75.02,1.89.02,1.9-1.98,1.91-2.64.01-5.28.03-7.92-.01-.94-.01-1.25.33-1.23,1.25.05,2.15,0,4.31.02,6.46.02,1.7.04,1.73,1.7,1.75,3.44.02,6.88,0,10.31.02.6,0,1.45-.32,1.75.36.38.87.21,1.89.07,2.82-.06.4-.65.36-1.05.36-2,0-4,0-6,0-3.2,0-6.4-.05-9.59.03-1.21.03-1.66-.26-1.63-1.56.08-4.39.03-8.78.03-13.16Z"/>
  <path fill="#020202" stroke-width="0" d="M1192.19,185.24c-3.52,3.89-7.95,4.97-12.86,4.31-8.96-1.21-12.45-8.85-11.95-16.3.21-3.07,1.13-5.94,3.05-8.42,4.62-5.96,14.25-7.14,20.22-2.46.52.41,1.29.66.68,1.67-1.03,1.68-1.6,2.13-2.7,1.66-.43-.19-.8-.52-1.21-.76-6.47-3.73-13.66-.6-15.18,6.64-.53,2.53-.42,5.09.4,7.56,2.04,6.13,9.43,8.7,14.91,5.25.78-.49,1.32-1.61,2.41-1.32,1.04.28,1.5,1.33,2.23,2.17Z"/>
  <path fill="#020202" stroke-width="0" d="M461.81,185.26c-4.28,4.5-9.47,5.33-15.05,3.81-5.37-1.46-8.31-5.39-9.43-10.72-.67-3.19-.5-6.36.56-9.44,3.61-10.47,16.06-11.48,22.34-6.59.63.49,1.32.84.61,1.87-1.15,1.67-1.58,1.99-2.77,1.41-.36-.17-.66-.44-1-.65-4.84-3.05-13.44-2.07-15.19,6.62-.58,2.86-.45,5.72.74,8.45,2.99,6.87,10.67,6.8,14.57,4.33,2.54-1.62,2.53-1.63,4.62.92Z"/>
  <path fill="#020202" stroke-width="0" d="M190.27,159.54c2.89,0,5.32.66,7.44,2.24,1.11.82,1.1,1.03.14,2.56-.76,1.21-1.15,1.41-2.29.67-1.87-1.21-3.8-1.96-6.08-1.65-.98.13-1.87.43-2.64,1.03-2.01,1.58-2,4.4.03,5.94.76.58,1.64.95,2.56,1.26,1.58.53,3.17,1.08,4.72,1.69,2.96,1.17,5.01,3.11,5.12,6.51.13,3.72-1.19,6.72-4.55,8.58-4.13,2.29-10.45,1.5-13.93-1.67-.98-.9-.98-1.14.07-2.62.82-1.15,1.24-1.27,2.35-.61.96.57,1.85,1.26,2.86,1.74,2.04.97,4.18,1.08,6.26.12,1.73-.8,2.64-2.21,2.71-4.17.07-1.97-.97-3.18-2.64-3.86-2.14-.87-4.37-1.51-6.5-2.39-3.75-1.54-5.46-4.83-4.63-8.67.79-3.63,3.69-6.18,7.57-6.63.55-.06,1.12-.07,1.42-.09Z"/>
  <path fill="#020202" stroke-width="0" d="M1233.85,159.54c2.5.01,4.71.59,6.7,1.9,1.54,1.01,1.58,1.21.64,2.82-.8,1.37-1.14,1.5-2.66.53-1.9-1.2-3.9-1.8-6.14-1.39-1.48.28-2.69.95-3.34,2.41-.79,1.74-.45,3.3,1.06,4.46.83.63,1.77,1.05,2.77,1.37,1.52.49,3.03.99,4.51,1.59,2.74,1.11,4.88,2.84,5.15,6.01.32,3.67-.78,6.83-4.03,8.87-4.62,2.9-10.85,1.59-14.54-1.49-1.15-.96-.27-1.67.16-2.46.47-.85,1.08-1.44,2.11-.86.62.35,1.18.82,1.78,1.21,1.81,1.17,3.78,1.69,5.93,1.35,1.47-.24,2.74-.84,3.6-2.12,1.49-2.21.96-4.84-1.35-6.17-.89-.51-1.89-.83-2.86-1.19-1.35-.49-2.72-.91-4.06-1.42-3.1-1.16-4.75-3.47-4.85-6.72-.11-3.29,1.3-5.87,4.23-7.49,1.64-.91,3.43-1.28,5.18-1.2Z"/>
  <path fill="#020202" stroke-width="0" d="M938.29,160.13c.17,1.05.18,2.14-.04,3.37h-8.79c-.56.94-.33,1.84-.33,2.69-.02,7.09,0,14.18-.02,21.27,0,1.8-.02,1.8-1.81,1.83-.56,0-1.12-.02-1.68,0-.7.03-1.03-.27-1-.98.02-.56,0-1.12,0-1.67,0-7.01,0-14.02,0-21.03,0-2.05-.03-2.06-2.11-2.07-1.92-.01-3.83-.05-5.75.02-1.11.04-1.54-.25-1.52-1.45.04-2.2-.04-2.21,2.18-2.22,6.39,0,12.78,0,19.16,0,.55,0,1.12-.13,1.7.24Z"/>
  <path fill="#020202" stroke-width="0" d="M488.63,160.11c.17,1.08.19,2.17-.04,3.4h-8.81c-.51.96-.3,1.85-.3,2.71-.02,7.1,0,14.21-.01,21.31,0,1.72-.03,1.73-1.64,1.76-.87.02-1.74,0-2.55,0-.47-.9-.28-1.71-.28-2.49-.02-6.78,0-13.57,0-20.35,0-.56-.03-1.12,0-1.68.04-.91-.36-1.27-1.28-1.25-2.32.04-4.64.01-6.96,0-.32,0-.63-.05-.98-.08-.08-.25-.2-.46-.2-.68,0-3.51-.37-2.86,2.9-2.88,5.92-.04,11.84-.02,17.76,0,.78,0,1.59-.18,2.41.21Z"/>
  <path fill="#020202" stroke-width="0" d="M385.96,174.52c0-4.3-.01-8.61,0-12.91,0-1.68.03-1.71,1.69-1.72,5.03-.02,10.06-.01,15.09,0,.52,0,1.34-.27,1.45.42.16.98.34,2.07-.17,3.01-.24.43-.88.2-1.34.2-3.43.02-6.87,0-10.3.01-1.99,0-2,.02-2.02,1.91-.02,2.07.06,4.15-.03,6.21-.05,1.24.34,1.69,1.61,1.66,2.95-.07,5.91-.04,8.86-.01,1.49.02,1.41.06,1.49,1.94.05,1.23-.3,1.66-1.58,1.62-2.87-.09-5.75-.04-8.62-.02-1.7.01-1.72.03-1.73,1.67-.02,3.11-.05,6.22.02,9.32.03,1.15-.29,1.51-1.46,1.48-3.66-.12-2.91.37-2.95-2.84-.05-3.98-.01-7.97-.01-11.95Z"/>
  <path fill="#020202" stroke-width="0" d="M696.45,174.67c0-4.38.04-8.77-.03-13.15-.02-1.22.29-1.67,1.58-1.66,5.11.06,10.23.06,15.34,0,1.2-.01,1.48.4,1.45,1.51-.08,2.56.08,2.15-2.2,2.16-3.28.02-6.55,0-9.83,0-1.87,0-1.89.03-1.91,1.78-.02,2.15.05,4.31-.03,6.46-.04,1.13.31,1.57,1.48,1.54,2.95-.06,5.91-.04,8.87-.01,1.53.02,1.45.06,1.53,1.92.05,1.22-.29,1.68-1.58,1.64-2.71-.09-5.43-.02-8.15-.03-2.42,0-2.13-.09-2.14,2.24,0,2.95-.03,5.9.02,8.85.02.98-.21,1.38-1.3,1.4-3.12.06-3.12.12-3.12-2.94,0-3.91,0-7.81,0-11.72Z"/>
  <path fill="#020202" stroke-width="0" d="M668.12,159.89c2.55,0,5.11.05,7.66-.02,1.14-.03,1.52.32,1.5,1.49-.03,2.16.04,2.17-2.22,2.18-3.11,0-6.23,0-9.34,0-2.66,0-2.37-.21-2.39,2.49,0,1.67,0,3.35,0,5.02,0,2.23-.29,2.26,2.16,2.25,2.71-.01,5.43-.01,8.14,0,.53,0,1.29-.22,1.49.41.28.89.29,1.9-.01,2.79-.17.5-.83.33-1.3.33-2.87.01-5.75.01-8.62,0-1.8,0-1.88-.18-1.87,1.79.02,3.11-.03,6.21.03,9.32.02,1.03-.3,1.35-1.34,1.37-3.08.07-3.08.12-3.08-2.95,0-7.89,0-15.77,0-23.66q0-2.83,2.72-2.83c2.16,0,4.31,0,6.47,0Z"/>
  <path fill="#020202" stroke-width="0" d="M1218.84,159.89q.47,3.65-2.8,3.65c-1.6,0-3.2.05-4.79-.02-1.02-.04-1.45.28-1.41,1.34.06,1.51.02,3.03.02,4.54,0,6.06,0,12.11,0,18.17,0,1.68-.03,1.73-1.68,1.71-3.61-.02-2.93.39-2.95-2.83-.04-6.93,0-13.86-.01-20.8,0-2.1-.02-2.11-2.02-2.12-1.84-.01-3.67.01-5.51,0-1.75-.02-1.75-.03-1.74-1.88,0-.24.01-.48,0-.72-.08-1.33.9-1.04,1.64-1.05,5.59-.01,11.18,0,16.77,0,1.43,0,2.87,0,4.49,0Z"/>
  <path fill="#020202" stroke-width="0" d="M726.6,174.59c0,4.38-.05,8.76.03,13.13.02,1.29-.41,1.74-1.62,1.57-.16-.02-.32,0-.48,0-3.02-.03-2.56.26-2.56-2.51-.02-8.36-.01-16.72,0-25.07,0-1.79.03-1.79,1.83-1.83.08,0,.16,0,.24,0,3.12.01,2.54-.12,2.56,2.53.03,4.06,0,8.12,0,12.18Z"/>
  <path fill="#fcb21c" stroke-width="0" d="M80.69,187.78c.79-2.52,2.24-4.73,3.3-7.14,1.92-4.39,3.66-8.82,4.22-13.64.61-5.28-.61-10.13-3.44-14.59-1.09-1.72-2.09-1.89-3.77-.68-3.43,2.47-6.83,5-10.21,7.54-.93.7-1.92,1.17-3.08,1.08-2.41-.19-3.95-2.28-3.43-4.74.72-3.43,1.61-6.82,2.3-10.25,1.38-6.88,1.7-13.74-.55-20.53-1.17-3.52-2.87-6.74-5.05-9.72-.14-.19-.27-.39-.43-.58-.48-.56-.98-1.14-1.82-.78-.75.32-.98.99-1,1.76-.03,1.27-.14,2.54-.31,3.81-1.25,9.39-5.61,17.17-12.2,23.82-2.47,2.49-5.01,4.93-7.45,7.45-5.44,5.63-8.57,12.26-8.34,20.21.15,5.12,1.77,9.85,4.35,14.25.4.69.8,1.38,1.19,2.07-.13.09-.25.19-.36.31-2.56-1.66-4.21-4.12-5.6-6.73-4.75-8.91-4.28-17.93-.28-26.94,2.47-5.58,6.53-9.98,10.77-14.25,3.61-3.63,6.93-7.5,9.47-11.99,2.75-4.85,3.92-9.91,2.34-15.39-.34-1.17-.38-2.37-.37-3.56.02-4.34,3.35-6.41,7.35-4.61,1.12.5,2.12,1.21,2.89,2.11,5.22,6.08,10.09,12.38,12.04,20.41,1.47,6.06,1.7,12.13.58,18.26-.18.96-.97,2.23.09,2.87,1.19.72,1.93-.67,2.77-1.32,1.27-.97,2.43-2.09,3.76-2.97,2.58-1.7,4.34-1.4,6.21,1.04,3.43,4.47,5.6,9.52,6.01,15.14.79,10.74-2.9,19.87-10.41,27.52-.39.39-.77.82-1.35.94-.06-.06-.12-.12-.18-.18Z"/>
  <path fill="#fcb21c" stroke-width="0" d="M35.16,187.82c-.29.01-.46-.13-.55-.39.11-.12.23-.22.36-.31.19.22.38.44.16.75l.03-.05Z"/>
  <path fill="#fcb21c" stroke-width="0" d="M35.13,187.87c.14-.11.36-.04.32.04-.19.4-.2,0-.29-.09,0,0-.04.05-.04.05Z"/>
  <path fill="#fcb21c" stroke-width="0" d="M80.87,187.96c-.14.27-.34.42-.66.29l.03.03c.08-.23.17-.45.45-.5.06.06.12.12.18.18Z"/>
  <polygon fill="#fcb21c" stroke-width="0" points="80.22 188.25 80.19 188.42 80.24 188.28 80.22 188.25"/>
</svg>